<?xml version="1.0" encoding="utf-8"?>
<!-- Generator: Adobe Illustrator 16.0.0, SVG Export Plug-In . SVG Version: 6.00 Build 0)  -->
<!DOCTYPE svg PUBLIC "-//W3C//DTD SVG 1.1//EN" "http://www.w3.org/Graphics/SVG/1.1/DTD/svg11.dtd">
<svg version="1.1" id="_x32_" xmlns="http://www.w3.org/2000/svg" xmlns:xlink="http://www.w3.org/1999/xlink" x="0px" y="0px"
	 width="595.279px" height="841.89px" viewBox="0 0 595.279 841.89" enable-background="new 0 0 595.279 841.89"
	 xml:space="preserve">
<g>
	<path fill="#767676" d="M486.644,324.84c6.975-1.501,11.953-7.652,11.953-14.793v-65.988c0-4.566-2.063-8.894-5.62-11.771
		c-3.556-2.867-8.22-3.982-12.688-3.023l-60.017,12.897v-82.95c0-4.483-1.992-8.737-5.433-11.615
		c-3.446-2.878-7.986-4.078-12.396-3.274l-44.979,8.154c-7.198,1.303-12.433,7.569-12.433,14.888v90.968l-93.777,20.152v-80.635
		c0-4.483-1.992-8.736-5.433-11.615c-3.438-2.878-7.98-4.077-12.396-3.274l-44.983,8.144c-7.199,1.302-12.433,7.57-12.433,14.889
		v88.653l-67.373,14.482c-6.976,1.49-11.954,7.662-11.954,14.793v65.988c0,4.566,2.065,8.893,5.621,11.771
		c3.56,2.867,8.22,3.983,12.692,3.024l61.014-13.116v126.02l-67.373,14.482c-6.976,1.49-11.954,7.652-11.954,14.783v65.967
		c0,4.566,2.065,8.893,5.621,11.771c3.56,2.867,8.22,3.982,12.692,3.021l61.014-13.115v88.934c0,4.484,1.99,8.738,5.432,11.615
		c3.44,2.879,7.98,4.078,12.396,3.273l44.979-8.133c7.199-1.301,12.438-7.568,12.438-14.887v-96.963l93.777-20.152v86.619
		c0,4.494,1.99,8.748,5.432,11.615c3.441,2.879,7.981,4.076,12.396,3.273l44.979-8.143c7.199-1.305,12.434-7.57,12.434-14.889
		v-94.65l66.372-14.262c6.975-1.5,11.953-7.652,11.953-14.793v-65.957c0-4.566-2.063-8.893-5.62-11.771
		c-3.555-2.865-8.22-3.982-12.687-3.021l-60.018,12.896v-126.02L486.644,324.84z M345.031,481.294l-93.777,20.145V375.427
		l93.777-20.154V481.294z"/>
	<path fill="#4B4B4B" d="M423.697,123.347c0.025,0,0.046,0,0.072-0.01l0.193-0.032L423.697,123.347z"/>
</g>
</svg>
